<?xml version="1.0" standalone="no"?>
<!DOCTYPE svg PUBLIC "-//W3C//DTD SVG 20010904//EN"
 "http://www.w3.org/TR/2001/REC-SVG-20010904/DTD/svg10.dtd">
<svg version="1.0" xmlns="http://www.w3.org/2000/svg"
 width="512.000000pt" height="512.000000pt" viewBox="0 0 512.000000 512.000000"
 preserveAspectRatio="xMidYMid meet">
<metadata>
Created by potrace 1.14, written by Peter Selinger 2001-2017
</metadata>
<g transform="translate(0.000000,512.000000) scale(0.100000,-0.100000)"
fill="#000000" stroke="none">
<path d="M2378 5115 c-2 -1 -39 -5 -82 -9 -44 -4 -82 -9 -85 -11 -4 -2 -34 -7
-66 -10 -117 -14 -472 -111 -499 -136 -6 -5 -16 -9 -23 -9 -15 0 -131 -52
-228 -101 -344 -175 -654 -438 -886 -749 -332 -446 -500 -946 -503 -1500 -1
-264 11 -392 60 -605 52 -225 166 -519 270 -692 10 -17 36 -60 57 -95 45 -75
166 -238 237 -319 316 -360 725 -625 1185 -768 123 -38 289 -74 405 -87 30 -3
76 -10 103 -14 48 -7 471 -5 517 4 14 2 45 7 70 10 25 4 92 16 150 27 58 12
115 23 128 25 38 7 320 103 370 125 365 164 645 365 905 649 320 350 554 839
622 1300 3 19 7 44 10 55 19 94 27 459 13 605 -59 593 -321 1142 -746 1566
-152 151 -308 273 -497 386 -66 39 -298 158 -310 158 -4 0 -21 6 -38 14 -137
62 -431 140 -607 161 -25 3 -56 8 -70 11 -27 6 -456 14 -462 9z"/>
</g>
</svg>
